<?xml version="1.0" encoding="utf-8"?>
<!-- Generator: Adobe Illustrator 23.0.6, SVG Export Plug-In . SVG Version: 6.00 Build 0)  -->
<svg version="1.1" id="Layer_1" xmlns="http://www.w3.org/2000/svg" xmlns:xlink="http://www.w3.org/1999/xlink" x="0px" y="0px"
	 viewBox="0 0 24 24" style="enable-background:new 0 0 24 24;" xml:space="preserve">
<g>
	<path d="M22.39,5.98C23.46,7.82,24,9.82,24,12s-0.54,4.18-1.61,6.02c-1.07,1.84-2.53,3.3-4.37,4.37C16.19,23.46,14.18,24,12,24
		c-2.18,0-4.19-0.54-6.02-1.61c-1.84-1.07-3.3-2.53-4.37-4.37C0.54,16.18,0,14.18,0,12s0.54-4.18,1.61-6.02
		c1.07-1.84,2.53-3.29,4.37-4.37C7.81,0.54,9.82,0,12,0c2.18,0,4.18,0.54,6.02,1.61C19.86,2.68,21.32,4.14,22.39,5.98z M15.88,2.8
		C14.65,2.27,13.35,2,12,2c-1.35,0-2.65,0.27-3.88,0.8c-1.24,0.53-2.3,1.24-3.19,2.13C4.04,5.82,3.33,6.88,2.8,8.12
		C2.27,9.35,2,10.65,2,12c0,1.35,0.27,2.65,0.8,3.88c0.53,1.24,1.24,2.3,2.13,3.19s1.95,1.6,3.19,2.13C9.35,21.73,10.65,22,12,22
		c1.35,0,2.65-0.27,3.88-0.8c1.23-0.53,2.3-1.24,3.19-2.13c0.89-0.89,1.6-1.95,2.13-3.19C21.74,14.65,22,13.35,22,12
		c0-1.35-0.27-2.65-0.8-3.88c-0.53-1.23-1.24-2.3-2.13-3.19C18.18,4.04,17.12,3.33,15.88,2.8z M17.75,9c0,0.52-0.08,0.99-0.23,1.41
		c-0.16,0.42-0.39,0.78-0.71,1.08c-0.32,0.3-0.59,0.53-0.81,0.69c-0.22,0.16-0.53,0.34-0.93,0.56c-0.33,0.19-0.58,0.33-0.73,0.44
		c-0.15,0.1-0.29,0.23-0.41,0.37c-0.12,0.15-0.18,0.3-0.18,0.45v0.5c0,0.15-0.05,0.27-0.14,0.36S13.4,15,13.25,15h-2.5
		c-0.15,0-0.27-0.05-0.36-0.14s-0.14-0.21-0.14-0.36v-1.06c0-0.36,0.05-0.7,0.16-1.01c0.11-0.31,0.23-0.55,0.37-0.74
		c0.14-0.19,0.34-0.37,0.61-0.55c0.27-0.18,0.48-0.31,0.64-0.4c0.16-0.08,0.39-0.19,0.7-0.33c0.55-0.26,0.94-0.48,1.17-0.67
		c0.23-0.19,0.34-0.44,0.34-0.77c0-0.44-0.23-0.81-0.68-1.12s-0.95-0.46-1.49-0.46c-0.58,0-1.08,0.14-1.48,0.42
		c-0.3,0.21-0.72,0.64-1.25,1.3C9.25,9.23,9.12,9.3,8.95,9.3c-0.11,0-0.21-0.03-0.3-0.09L6.97,7.92C6.86,7.85,6.8,7.74,6.78,7.61
		c-0.02-0.13,0-0.26,0.08-0.36c1.27-2,3.09-3,5.45-3c1.34,0,2.59,0.47,3.73,1.4C17.18,6.58,17.75,7.7,17.75,9z M13.75,16.75v2.5
		c0,0.15-0.05,0.27-0.14,0.36s-0.21,0.14-0.36,0.14h-2.5c-0.15,0-0.27-0.05-0.36-0.14s-0.14-0.21-0.14-0.36v-2.5
		c0-0.15,0.05-0.27,0.14-0.36s0.21-0.14,0.36-0.14h2.5c0.15,0,0.27,0.05,0.36,0.14S13.75,16.6,13.75,16.75z"/>
</g>
</svg>
