<?xml version="1.0" encoding="utf-8"?>
<!-- Generator: Adobe Illustrator 23.0.6, SVG Export Plug-In . SVG Version: 6.00 Build 0)  -->
<svg version="1.1" id="Layer_1" xmlns="http://www.w3.org/2000/svg" xmlns:xlink="http://www.w3.org/1999/xlink" x="0px" y="0px"
	 viewBox="0 0 24 24" style="enable-background:new 0 0 24 24;" xml:space="preserve">
<g>
	<path d="M23.88,21.56c0.08,0.08,0.12,0.18,0.12,0.31s-0.04,0.23-0.12,0.31l-1.54,1.54c-0.08,0.08-0.18,0.12-0.31,0.12
		c-0.13,0-0.23-0.04-0.31-0.12l-0.43-0.46l-0.22-0.19c-0.11-0.1-0.18-0.15-0.19-0.17l-3.79-3.79c-0.08-0.1-0.19-0.15-0.32-0.16
		c-0.14-0.01-0.25,0.03-0.35,0.11c-0.86,0.61-1.8,1.08-2.81,1.42c-1.04,0.34-2.1,0.5-3.19,0.5c-1.89,0-3.64-0.47-5.26-1.42
		c-1.57-0.93-2.82-2.18-3.74-3.74C0.47,14.21,0,12.46,0,10.57c0-1.89,0.47-3.64,1.42-5.26C2.34,3.75,3.59,2.5,5.16,1.57
		c1.62-0.94,3.37-1.42,5.26-1.42s3.63,0.47,5.23,1.42c1.57,0.93,2.82,2.18,3.74,3.74c0.94,1.62,1.42,3.37,1.42,5.26
		c0,2.05-0.55,3.93-1.66,5.64c-0.06,0.11-0.09,0.23-0.08,0.36c0.01,0.13,0.05,0.24,0.13,0.34L23.88,21.56z M17.93,13.15
		c0.29-0.82,0.43-1.68,0.43-2.58c0-1.44-0.36-2.78-1.08-4.01c-0.7-1.22-1.66-2.18-2.86-2.88c-1.23-0.72-2.57-1.08-4.01-1.08
		S7.64,2.96,6.41,3.68c-1.22,0.7-2.18,1.66-2.88,2.88C2.81,7.8,2.45,9.13,2.45,10.57c0,1.44,0.36,2.78,1.08,4.01
		c0.7,1.22,1.66,2.18,2.88,2.88c1.23,0.72,2.57,1.08,4.01,1.08c0.96,0,1.88-0.16,2.76-0.49s1.67-0.8,2.38-1.4
		c0.43-0.37,0.82-0.78,1.15-1.22C17.23,14.73,17.64,13.98,17.93,13.15z"/>
</g>
<path d="M14.71,8.07l-2.5,2.5l2.5,2.5c0.22,0.24,0.22,0.47,0,0.69l-0.93,0.93c-0.22,0.22-0.44,0.22-0.69,0l-2.5-2.5l-2.5,2.5
	c-0.24,0.22-0.47,0.22-0.69,0l-0.93-0.93c-0.22-0.22-0.22-0.44,0-0.69l2.5-2.5l-2.5-2.5c-0.22-0.24-0.22-0.47,0-0.69l0.93-0.93
	c0.22-0.22,0.44-0.22,0.69,0l2.5,2.5l2.5-2.5c0.24-0.22,0.47-0.22,0.69,0l0.93,0.93C14.92,7.6,14.92,7.83,14.71,8.07z"/>
</svg>
