<?xml version="1.0" encoding="utf-8"?>
<!-- Generator: Adobe Illustrator 23.0.6, SVG Export Plug-In . SVG Version: 6.00 Build 0)  -->
<svg version="1.1" id="Layer_1" xmlns="http://www.w3.org/2000/svg" xmlns:xlink="http://www.w3.org/1999/xlink" x="0px" y="0px"
	 viewBox="0 0 24 24" style="enable-background:new 0 0 24 24;" xml:space="preserve">
<g>
	<path d="M5.78,18c-0.22,0.38-0.38,0.85-0.46,1.39L5.3,19.61c-0.03,0.38-0.03,0.67,0,0.86c0,0.08-0.01,0.14-0.04,0.17
		c-0.02,0.03-0.08,0.05-0.16,0.05l-0.96-0.02C3,20.63,2.14,20.58,1.56,20.5c-0.3-0.03-0.56-0.09-0.77-0.17
		c-0.42-0.11-0.66-0.4-0.74-0.86c0-0.06-0.02-0.1-0.05-0.12v-0.79c0.03-0.05,0.05-0.13,0.05-0.24c0.08-0.78,0.47-1.33,1.18-1.63
		c0.27-0.14,0.69-0.33,1.25-0.55l0.36-0.17c0.27-0.13,0.46-0.3,0.55-0.53c0.1-0.22,0.09-0.47-0.02-0.74
		c-0.16-0.4-0.27-0.77-0.34-1.1c-0.02-0.11-0.09-0.17-0.22-0.17s-0.22-0.06-0.26-0.19c-0.19-0.51-0.3-0.9-0.34-1.18
		c-0.02-0.18,0.01-0.3,0.07-0.36c0.06-0.06,0.18-0.08,0.36-0.05c0.08,0.02,0.12,0,0.13-0.04c0.01-0.04,0-0.09-0.01-0.16v-0.02
		c-0.05-0.34-0.07-0.68-0.07-1.03C2.67,9.8,2.86,9.27,3.24,8.81C3.62,8.34,4.11,8.06,4.7,7.95C5.18,7.87,5.65,7.92,6.1,8.11
		C6.54,8.3,6.9,8.6,7.18,9c0.27,0.4,0.41,0.85,0.41,1.34c0,0.24-0.03,0.58-0.1,1.03c-0.02,0.11-0.01,0.19,0.01,0.23
		c0.02,0.04,0.1,0.04,0.23-0.01c0.06-0.02,0.13,0,0.19,0.05c0.06,0.05,0.1,0.11,0.12,0.19c0.05,0.11,0.05,0.23,0,0.36l-0.29,0.94
		c-0.05,0.19-0.17,0.29-0.36,0.29c-0.06,0-0.11,0.05-0.14,0.14c-0.05,0.26-0.17,0.64-0.36,1.15c-0.1,0.27-0.1,0.52,0,0.73
		c0.1,0.22,0.27,0.38,0.53,0.49c0.11,0.06,0.28,0.14,0.5,0.24l0.36,0.14c-0.03,0.05-0.09,0.08-0.17,0.1l-0.07,0.05
		c-0.34,0.14-0.74,0.34-1.2,0.58C6.38,17.26,6.02,17.59,5.78,18z M18.53,18.67c0.19,0.69,0.26,1.39,0.22,2.11
		c-0.03,0.37-0.14,0.66-0.31,0.88s-0.45,0.36-0.82,0.44c-0.59,0.14-1.28,0.23-2.06,0.26l-1.82,0.12h-2.9
		c-0.1-0.03-0.17-0.05-0.22-0.05c-0.98-0.03-1.7-0.07-2.18-0.12c-0.7-0.06-1.23-0.15-1.58-0.26C6.31,21.88,6,21.54,5.9,21.02
		c-0.14-0.69-0.1-1.46,0.14-2.33c0.11-0.37,0.34-0.68,0.7-0.94c0.13-0.1,0.34-0.22,0.62-0.38c0.26-0.13,0.66-0.31,1.2-0.55
		c0.4-0.18,0.7-0.31,0.91-0.41c0.29-0.1,0.46-0.23,0.53-0.41c0.19-0.42,0.22-0.8,0.07-1.15c-0.19-0.42-0.34-0.9-0.46-1.46
		c-0.03-0.08-0.08-0.12-0.14-0.12c-0.16,0-0.28-0.04-0.35-0.12S9,12.95,8.95,12.79L8.9,12.63c-0.05-0.14-0.08-0.26-0.1-0.34
		L8.74,12.1c-0.11-0.3-0.16-0.54-0.14-0.7c0-0.29,0.12-0.44,0.36-0.46c0.08-0.02,0.12-0.07,0.12-0.17c0.02-0.14,0.01-0.34-0.02-0.6
		l-0.02-0.17C8.91,9.1,9.1,8.29,9.58,7.57c0.48-0.71,1.16-1.17,2.04-1.38h0.12c0.1,0,0.17-0.02,0.22-0.07h0.7l0.05,0.02
		c0.06,0.02,0.1,0.02,0.12,0.02c0.59,0.08,1.12,0.3,1.57,0.67s0.8,0.82,1.02,1.37c0.22,0.54,0.3,1.11,0.22,1.7
		c-0.02,0.11-0.03,0.29-0.05,0.53l-0.02,0.26c-0.03,0.16,0.03,0.24,0.19,0.25c0.16,0.01,0.26,0.1,0.29,0.29
		c0.03,0.18,0.02,0.35-0.02,0.49l-0.36,1.18c-0.08,0.24-0.23,0.36-0.46,0.36c-0.11-0.02-0.17,0.03-0.17,0.14
		c-0.08,0.4-0.23,0.86-0.46,1.39c-0.14,0.35-0.16,0.68-0.04,0.97s0.35,0.52,0.68,0.68c0.06,0.03,0.17,0.07,0.31,0.12l0.58,0.26
		c0.78,0.34,1.35,0.62,1.7,0.86C18.21,17.99,18.45,18.3,18.53,18.67z M24,18.77v0.67c-0.03,0-0.05,0.02-0.05,0.05
		c-0.06,0.42-0.34,0.68-0.83,0.78c-0.49,0.1-1.23,0.17-2.22,0.2h-0.02c-0.14,0-0.36,0-0.64,0c-0.28,0-0.49,0.01-0.62,0.02
		c-0.14,0.02-0.22,0-0.26-0.04c-0.04-0.04-0.06-0.12-0.06-0.23c0-0.58-0.07-1.14-0.22-1.68c-0.1-0.38-0.29-0.72-0.58-1.01
		c-0.24-0.22-0.56-0.44-0.96-0.65l-0.36-0.17l-0.07-0.07c0.26-0.13,0.45-0.22,0.58-0.26c0.25-0.1,0.41-0.27,0.46-0.53
		c0.05-0.26,0.01-0.5-0.12-0.72c-0.02-0.03-0.06-0.06-0.14-0.07l-0.07-0.02c-0.74-0.13-1.29-0.3-1.66-0.5
		c-0.24-0.13-0.42-0.3-0.53-0.53c-0.05-0.06-0.07-0.12-0.06-0.16c0.01-0.04,0.06-0.07,0.16-0.08c0.37-0.05,0.63-0.27,0.79-0.67
		c0.13-0.29,0.23-0.73,0.31-1.32l0.1-0.55c0.11-0.54,0.29-1,0.53-1.37c0.27-0.43,0.63-0.76,1.07-0.98c0.44-0.22,0.91-0.3,1.4-0.24
		c0.5,0.06,0.94,0.25,1.34,0.55c0.4,0.3,0.68,0.69,0.84,1.15c0.08,0.26,0.15,0.64,0.22,1.15l0.05,0.38
		c0.06,0.64,0.22,1.13,0.48,1.46c0.14,0.21,0.34,0.36,0.58,0.46c0.1,0.03,0.15,0.07,0.16,0.12c0.01,0.05-0.01,0.1-0.06,0.17
		c-0.16,0.22-0.44,0.43-0.84,0.62c-0.34,0.14-0.76,0.26-1.27,0.34c-0.06,0.02-0.11,0.04-0.14,0.07s-0.07,0.08-0.12,0.14
		c-0.1,0.26-0.1,0.48-0.02,0.68s0.24,0.36,0.48,0.47c0.14,0.06,0.36,0.16,0.65,0.29c0.45,0.19,0.78,0.35,0.98,0.48
		c0.32,0.21,0.51,0.46,0.58,0.77L24,18.77z"/>
</g>
</svg>
