<?xml version="1.0" encoding="utf-8"?>
<!-- Generator: Adobe Illustrator 23.0.6, SVG Export Plug-In . SVG Version: 6.00 Build 0)  -->
<svg version="1.1" id="Layer_1" xmlns="http://www.w3.org/2000/svg" xmlns:xlink="http://www.w3.org/1999/xlink" x="0px" y="0px"
	 viewBox="0 0 24 24" style="enable-background:new 0 0 24 24;" xml:space="preserve">
<g>
	<path d="M12.11,23.83H3.54c-0.46,0-0.82-0.07-1.08-0.22c-0.61-0.34-0.91-0.82-0.91-1.46v-0.94c0.02-0.85,0.02-1.49,0-1.92
		c-0.02-0.94,0.36-1.75,1.13-2.42c0.62-0.53,1.45-0.98,2.47-1.37c0.75-0.29,1.86-0.78,3.31-1.46l0.55-0.26
		c0.18-0.08,0.27-0.22,0.29-0.41L9.45,12c0-0.13-0.04-0.22-0.12-0.29c-0.75-0.77-1.26-1.66-1.51-2.69C7.8,8.96,7.77,8.91,7.72,8.88
		C7.67,8.85,7.61,8.82,7.53,8.81c-0.29-0.03-0.47-0.2-0.55-0.5C6.94,8.13,6.9,7.87,6.86,7.52s-0.09-0.6-0.12-0.78
		c-0.08-0.34,0.03-0.57,0.34-0.7C7.15,6.02,7.2,5.98,7.22,5.94c0.02-0.04,0.02-0.1,0-0.18C7.06,4.98,7.1,4.13,7.34,3.22
		C7.54,2.45,7.95,1.8,8.55,1.26c0.6-0.54,1.26-0.82,1.98-0.85c0.4,0,0.75-0.09,1.06-0.26c0.59-0.34,1.22-0.39,1.9-0.17
		c1.81,0.62,2.96,1.81,3.46,3.55c0.08,0.32,0.12,0.68,0.12,1.08c-0.02,0.26-0.06,0.62-0.12,1.1v0.07c0,0.08,0.01,0.14,0.02,0.17
		s0.06,0.06,0.14,0.07c0.16,0.05,0.27,0.13,0.34,0.25c0.06,0.12,0.08,0.26,0.05,0.42c-0.05,0.3-0.12,0.76-0.22,1.37L17.23,8.3
		c-0.03,0.16-0.1,0.28-0.19,0.37c-0.1,0.09-0.22,0.14-0.38,0.16c-0.16,0.02-0.25,0.08-0.26,0.19c-0.14,0.88-0.62,1.72-1.42,2.52
		c-0.18,0.18-0.24,0.38-0.19,0.6c0.06,0.46,0.1,0.83,0.12,1.1c0,0.14,0.03,0.26,0.1,0.34c0.06,0.08,0.16,0.15,0.29,0.22
		c1.58,0.77,3,1.4,4.25,1.9c0.85,0.37,1.53,0.77,2.04,1.2c0.74,0.66,1.1,1.43,1.1,2.33c0,1.31-0.01,2.29-0.02,2.93
		c0,0.43-0.14,0.8-0.41,1.1c-0.27,0.3-0.63,0.48-1.07,0.54c-0.44,0.06-1.12,0.07-2.05,0.04h-0.79c-0.91,0.02-2.3,0.02-4.15,0H12.11z
		"/>
</g>
</svg>
