<?xml version="1.0" encoding="utf-8"?>
<!-- Generator: Adobe Illustrator 23.0.6, SVG Export Plug-In . SVG Version: 6.00 Build 0)  -->
<svg version="1.1" id="Layer_1" xmlns="http://www.w3.org/2000/svg" xmlns:xlink="http://www.w3.org/1999/xlink" x="0px" y="0px"
	 viewBox="0 0 24 24" style="enable-background:new 0 0 24 24;" xml:space="preserve">
<g>
	<path d="M20.67,15v3.74c0,1.14-0.41,2.12-1.22,2.93c-0.81,0.81-1.79,1.22-2.94,1.22h-12c-1.14,0-2.12-0.41-2.94-1.22
		c-0.81-0.81-1.22-1.79-1.22-2.93v-12c0-1.14,0.41-2.12,1.22-2.94c0.81-0.81,1.79-1.22,2.94-1.22h3.68c0.13,0,0.23,0.05,0.32,0.14
		c0.09,0.09,0.14,0.2,0.14,0.32c0,0.26-0.13,0.41-0.38,0.46C7.54,3.75,6.9,4.04,6.36,4.36C6.26,4.4,6.18,4.42,6.13,4.42H4.51
		c-0.64,0-1.18,0.23-1.63,0.68C2.43,5.55,2.2,6.1,2.2,6.73v12c0,0.63,0.23,1.18,0.68,1.63c0.45,0.45,0.99,0.68,1.63,0.68h12
		c0.63,0,1.18-0.23,1.63-0.68c0.45-0.45,0.68-0.99,0.68-1.63v-3.09c0-0.18,0.09-0.32,0.26-0.42c0.27-0.13,0.53-0.3,0.78-0.53
		c0.15-0.15,0.32-0.19,0.5-0.12C20.56,14.66,20.67,14.8,20.67,15z M24.08,7.84l-5.54,5.54c-0.17,0.18-0.39,0.27-0.65,0.27
		c-0.12,0-0.24-0.02-0.36-0.07c-0.38-0.16-0.56-0.45-0.56-0.85V9.96h-2.31c-3.11,0-5.21,0.63-6.32,1.89
		c-1.14,1.32-1.5,3.59-1.07,6.82c0.03,0.22-0.07,0.38-0.29,0.49c-0.08,0.02-0.14,0.03-0.17,0.03c-0.15,0-0.28-0.06-0.38-0.19
		c-0.1-0.13-0.2-0.28-0.3-0.45c-0.11-0.16-0.3-0.49-0.57-0.99c-0.27-0.5-0.51-0.97-0.71-1.44c-0.2-0.46-0.39-1.01-0.56-1.64
		c-0.17-0.64-0.25-1.22-0.25-1.76c0-0.47,0.02-0.91,0.05-1.31c0.03-0.4,0.1-0.84,0.2-1.3c0.1-0.46,0.24-0.88,0.4-1.27
		C4.87,8.47,5.1,8.07,5.38,7.68C5.67,7.28,6,6.92,6.37,6.61C6.75,6.3,7.2,6,7.74,5.72c0.53-0.28,1.13-0.51,1.8-0.7
		c0.66-0.19,1.43-0.33,2.3-0.44c0.87-0.11,1.81-0.16,2.83-0.16h2.31V1.65c0-0.4,0.19-0.69,0.56-0.85c0.12-0.05,0.25-0.07,0.36-0.07
		c0.25,0,0.47,0.09,0.65,0.27l5.54,5.54c0.18,0.18,0.27,0.4,0.27,0.65C24.36,7.44,24.27,7.66,24.08,7.84z"/>
</g>
</svg>
