<?xml version="1.0" encoding="utf-8"?>
<!-- Generator: Adobe Illustrator 23.0.6, SVG Export Plug-In . SVG Version: 6.00 Build 0)  -->
<svg version="1.1" id="Layer_1" xmlns="http://www.w3.org/2000/svg" xmlns:xlink="http://www.w3.org/1999/xlink" x="0px" y="0px"
	 viewBox="0 0 24 24" style="enable-background:new 0 0 24 24;" xml:space="preserve">
<g>
	<path d="M11.34,24.19c-0.52,0-0.99-0.19-1.39-0.57l-1.16-1.15c-0.39-0.39-0.59-0.86-0.59-1.4c0-0.55,0.2-1.02,0.59-1.39l4.51-4.53
		H2.46c-0.53,0-0.97-0.19-1.3-0.58c-0.33-0.39-0.5-0.85-0.5-1.39V11.2c0-0.54,0.17-1.01,0.5-1.4c0.33-0.38,0.77-0.58,1.3-0.58h10.84
		L8.79,4.7C8.41,4.33,8.21,3.87,8.21,3.32s0.2-1.02,0.59-1.39l1.16-1.16c0.39-0.39,0.85-0.59,1.39-0.59c0.54,0,1.01,0.19,1.4,0.59
		L22.77,10.8c0.38,0.36,0.57,0.82,0.57,1.39c0,0.55-0.19,1.02-0.57,1.4L12.74,23.62C12.34,24,11.87,24.19,11.34,24.19z"/>
</g>
</svg>
