<?xml version="1.0" encoding="utf-8"?>
<!-- Generator: Adobe Illustrator 23.0.6, SVG Export Plug-In . SVG Version: 6.00 Build 0)  -->
<svg version="1.1" id="Layer_1" xmlns="http://www.w3.org/2000/svg" xmlns:xlink="http://www.w3.org/1999/xlink" x="0px" y="0px"
	 viewBox="0 0 24 24" style="enable-background:new 0 0 24 24;" xml:space="preserve">
<g>
	<path d="M24,12.72c0,0.52-0.19,0.99-0.57,1.39l-1.15,1.16c-0.39,0.39-0.86,0.59-1.4,0.59c-0.55,0-1.02-0.2-1.39-0.59l-4.53-4.51
		v10.84c0,0.53-0.19,0.97-0.58,1.3c-0.39,0.33-0.85,0.5-1.39,0.5h-1.97c-0.54,0-1.01-0.17-1.4-0.5c-0.38-0.33-0.58-0.77-0.58-1.3
		V10.75l-4.53,4.51c-0.37,0.39-0.83,0.59-1.39,0.59s-1.02-0.2-1.39-0.59l-1.16-1.16C0.19,13.72,0,13.25,0,12.72
		c0-0.54,0.19-1.01,0.59-1.4L10.61,1.29c0.36-0.38,0.82-0.57,1.39-0.57c0.55,0,1.02,0.19,1.4,0.57l10.03,10.03
		C23.81,11.72,24,12.19,24,12.72z"/>
</g>
</svg>
